<svg xmlns="http://www.w3.org/2000/svg" width="120" height="120" viewBox="0 0 120 120">
  <g id="Group_244" data-name="Group 244" transform="translate(-120 -320)">
    <rect id="Rectangle_970" data-name="Rectangle 970" width="120" height="120" rx="27" transform="translate(120 320)" fill="#1e96dc"/>
    <g id="Слой_x0020_1" transform="translate(141 341)">
      <path id="Path_2116" data-name="Path 2116" d="M59.961,0a4.689,4.689,0,0,1,4.7,4.7,4.613,4.613,0,0,1-1.4,3.3h0L48.909,22.358a14.031,14.031,0,0,1-19.818,0L14.736,8a4.613,4.613,0,0,1-1.4-3.3,4.611,4.611,0,0,1,4.7-4.7C31.886.127,45.987.127,59.961,0ZM0,59.961a4.689,4.689,0,0,0,4.7,4.7,4.613,4.613,0,0,0,3.3-1.4H8L22.358,48.909a14.031,14.031,0,0,0,0-19.818L8,14.736a4.613,4.613,0,0,0-3.3-1.4,4.611,4.611,0,0,0-4.7,4.7C.127,31.886.127,45.987,0,59.961ZM59.961,78a4.773,4.773,0,0,0,4.7-4.7,4.613,4.613,0,0,0-1.4-3.3h0L48.909,55.642a14.031,14.031,0,0,0-19.818,0L14.736,70a4.613,4.613,0,0,0-1.4,3.3,4.689,4.689,0,0,0,4.7,4.7C31.886,77.746,45.987,77.746,59.961,78ZM78,59.961a4.773,4.773,0,0,1-4.7,4.7,4.613,4.613,0,0,1-3.3-1.4h0L55.642,48.909a14.031,14.031,0,0,1,0-19.818L70,14.736a4.613,4.613,0,0,1,3.3-1.4,4.689,4.689,0,0,1,4.7,4.7C77.746,31.886,77.746,45.987,78,59.961Z" fill="#fff" fill-rule="evenodd"/>
    </g>
  </g>
</svg>
